<svg id="svg" xmlns="http://www.w3.org/2000/svg" xmlns:xlink="http://www.w3.org/1999/xlink" width="400" height="400" viewBox="0, 0, 400,400"><g id="svgg"><path id="path0" d="M183.878 0.856 C 98.759 7.814,27.729 67.635,6.302 150.408 C 2.195 166.273,3.790 174.915,12.404 183.474 C 24.002 194.999,41.057 195.016,52.464 183.515 C 57.204 178.737,58.896 175.421,61.029 166.735 C 78.902 93.939,148.489 47.539,222.245 59.239 C 250.454 63.713,278.035 78.100,299.174 99.367 L 303.450 103.668 282.002 125.202 C 269.862 137.390,259.997 147.626,259.271 148.789 C 254.461 156.489,257.422 166.546,265.612 170.329 L 267.551 171.224 328.163 171.224 L 388.776 171.224 390.726 170.324 C 393.638 168.979,397.235 165.339,398.625 162.331 L 399.796 159.796 399.906 100.612 C 400.014 42.460,400.001 41.382,399.201 38.776 C 397.146 32.084,391.532 28.275,384.286 28.653 C 378.474 28.955,378.010 29.309,360.000 47.192 L 344.286 62.796 339.137 57.788 C 296.926 16.728,240.923 -3.807,183.878 0.856 M364.286 208.139 C 350.697 209.816,343.097 217.555,338.805 234.082 C 310.623 342.615,178.593 379.257,100.418 300.240 L 96.551 296.331 117.998 274.798 C 139.947 252.762,141.430 251.076,142.670 246.763 C 144.524 240.315,140.828 232.679,134.404 229.687 L 132.449 228.776 71.837 228.776 L 11.224 228.776 9.258 229.691 C 6.327 231.056,2.764 234.661,1.375 237.669 L 0.204 240.204 0.095 299.147 C -0.026 364.676,-0.172 360.988,2.716 365.207 C 5.698 369.563,9.953 371.604,15.510 371.345 C 21.555 371.062,21.858 370.833,40.012 352.780 L 55.739 337.142 58.176 339.621 C 154.846 437.962,317.878 411.728,379.038 287.988 C 386.504 272.882,393.436 252.554,395.901 238.538 C 398.746 222.360,381.717 205.987,364.286 208.139 " stroke="none" fill="#FFF" fill-rule="evenodd"></path></g></svg>