<?xml version="1.0" encoding="UTF-8"?>
<!DOCTYPE svg PUBLIC "-//W3C//DTD SVG 1.1//EN" "http://www.w3.org/Graphics/SVG/1.1/DTD/svg11.dtd">
<svg xmlns="http://www.w3.org/2000/svg" version="1.1" width="512px" height="512px" style="shape-rendering:geometricPrecision; text-rendering:geometricPrecision; image-rendering:optimizeQuality; fill-rule:evenodd; clip-rule:evenodd" xmlns:xlink="http://www.w3.org/1999/xlink">
<g><path style="opacity:0.989" fill="#ffc107" d="M 511.5,161.5 C 511.5,167.167 511.5,172.833 511.5,178.5C 505.887,197.939 493.054,209.606 473,213.5C 464.802,263.692 456.302,313.692 447.5,363.5C 447.286,353.785 443.619,345.618 436.5,339C 426.611,330.884 415.611,324.551 403.5,320C 369.401,308.705 334.401,302.039 298.5,300C 242.541,295.622 187.208,299.622 132.5,312C 110.577,316.797 90.9102,326.13 73.5,340C 70.8773,343.412 68.3773,346.912 66,350.5C 64.1003,354.632 63.267,358.966 63.5,363.5C 54.6982,313.692 46.1982,263.692 38,213.5C 18.3381,209.66 5.50479,198.327 -0.5,179.5C -0.5,173.167 -0.5,166.833 -0.5,160.5C 6.0716,139.769 20.2383,128.436 42,126.5C 68.703,129.037 83.203,143.703 85.5,170.5C 85.1026,174.385 84.4359,178.218 83.5,182C 97.6045,192.564 112.605,201.897 128.5,210C 147.069,215.863 164.069,212.863 179.5,201C 193.375,185.461 206.875,169.627 220,153.5C 208.515,133.155 210.348,113.988 225.5,96C 245.5,80.6667 265.5,80.6667 285.5,96C 300.145,112.659 302.311,130.825 292,150.5C 291.333,151.833 291.333,153.167 292,154.5C 302.712,166.876 313.045,179.543 323,192.5C 343.338,214.517 366.838,218.684 393.5,205C 405.163,197.644 416.496,189.977 427.5,182C 422.524,154.606 433.191,136.606 459.5,128C 486.118,124.806 503.451,135.973 511.5,161.5 Z"/></g>
<g><path style="opacity:0.986" fill="#ffd44e" d="M 447.5,363.5 C 446.736,373.527 442.402,381.694 434.5,388C 420.977,398.185 405.977,405.518 389.5,410C 330.705,424.983 271.039,429.983 210.5,425C 171.509,423.002 133.843,415.002 97.5,401C 85.8805,395.781 76.0472,388.281 68,378.5C 64.9788,373.938 63.4788,368.938 63.5,363.5C 63.267,358.966 64.1003,354.632 66,350.5C 68.3773,346.912 70.8773,343.412 73.5,340C 90.9102,326.13 110.577,316.797 132.5,312C 187.208,299.622 242.541,295.622 298.5,300C 334.401,302.039 369.401,308.705 403.5,320C 415.611,324.551 426.611,330.884 436.5,339C 443.619,345.618 447.286,353.785 447.5,363.5 Z"/></g>
<g><path style="opacity:1" fill="#ffa000" d="M 223.5,319.5 C 268.856,318.019 313.856,321.186 358.5,329C 380.239,333.132 400.572,340.799 419.5,352C 425.662,356.08 427.162,361.247 424,367.5C 416.562,375.141 407.729,380.641 397.5,384C 359.907,396.584 321.241,403.25 281.5,404C 238.834,406.188 196.5,403.521 154.5,396C 134.945,392.259 116.278,385.926 98.5,377C 81.636,367.688 81.3027,358.021 97.5,348C 119.263,336.857 142.263,329.524 166.5,326C 185.58,323.204 204.58,321.038 223.5,319.5 Z"/></g>
</svg>
